<mxfile host="Electron" modified="2024-06-10T01:13:45.384Z" agent="Mozilla/5.0 (Windows NT 10.0; Win64; x64) AppleWebKit/537.36 (KHTML, like Gecko) draw.io/24.5.1 Chrome/124.0.6367.207 Electron/30.0.6 Safari/537.36" etag="JKYi3Mmc8pk8NrxLSUwa" version="24.5.1" type="device">
  <diagram name="P치gina-1" id="BmQpAQnhH2ju0ME5Bwdr">
    <mxGraphModel dx="1222" dy="785" grid="1" gridSize="10" guides="1" tooltips="1" connect="1" arrows="1" fold="1" page="1" pageScale="1" pageWidth="1169" pageHeight="827" math="0" shadow="0">
      <root>
        <mxCell id="0" />
        <mxCell id="1" parent="0" />
        <mxCell id="twf0PPjM9mNhaG3VMw-u-50" value="" style="edgeStyle=orthogonalEdgeStyle;rounded=0;orthogonalLoop=1;jettySize=auto;html=1;" edge="1" parent="1" source="slrVzPa48H6eJzgvsd5o-6" target="twf0PPjM9mNhaG3VMw-u-49">
          <mxGeometry relative="1" as="geometry" />
        </mxCell>
        <mxCell id="slrVzPa48H6eJzgvsd5o-6" value="&lt;p style=&quot;margin:0px;margin-top:4px;text-align:center;&quot;&gt;&lt;b&gt;Divisi칩n: Entity&lt;/b&gt;&lt;/p&gt;&lt;hr size=&quot;1&quot;&gt;&lt;p style=&quot;margin:0px;margin-left:4px;&quot;&gt;+ Id: Guid&lt;/p&gt;&lt;p style=&quot;margin:0px;margin-left:4px;&quot;&gt;+ Curso: Guid&lt;/p&gt;&lt;p style=&quot;margin:0px;margin-left:4px;&quot;&gt;+ Descripcion: string&lt;/p&gt;&lt;p style=&quot;margin:0px;margin-left:4px;&quot;&gt;+ Preceptor: Guid&lt;/p&gt;&lt;p style=&quot;margin:0px;margin-left:4px;&quot;&gt;+ Cursantes: List&amp;lt;Cursantes&amp;gt;&lt;/p&gt;&lt;hr&gt;" style="verticalAlign=top;align=left;overflow=fill;fontSize=12;fontFamily=Helvetica;html=1;whiteSpace=wrap;fillColor=#d5e8d4;strokeColor=#82b366;labelBackgroundColor=none;labelBorderColor=none;sketch=1;curveFitting=1;jiggle=2;" parent="1" vertex="1">
          <mxGeometry x="20" y="480.00000000000006" width="180" height="145.93" as="geometry" />
        </mxCell>
        <mxCell id="fSairsaPHRafN0FBANSZ-2" value="&lt;p style=&quot;margin:0px;margin-top:4px;text-align:center;&quot;&gt;&lt;b&gt;&lt;span style=&quot;background-color: initial; text-align: left;&quot;&gt;Dise침oCurricular&lt;/span&gt;: AggregateRoot&lt;/b&gt;&lt;/p&gt;&lt;hr size=&quot;1&quot;&gt;&lt;p style=&quot;margin:0px;margin-left:4px;&quot;&gt;+ Id: Guid&lt;/p&gt;&lt;p style=&quot;margin:0px;margin-left:4px;&quot;&gt;+ FechaAlta: DateTime&lt;/p&gt;&lt;p style=&quot;margin:0px;margin-left:4px;&quot;&gt;+ FechaBaja: DataTime&lt;/p&gt;&lt;p style=&quot;margin:0px;margin-left:4px;&quot;&gt;&lt;span style=&quot;background-color: initial;&quot;&gt;+ EstaActiva: bool&lt;/span&gt;&lt;br&gt;&lt;/p&gt;&lt;hr size=&quot;1&quot;&gt;&lt;p style=&quot;margin:0px;margin-left:4px;&quot;&gt;&lt;br&gt;&lt;/p&gt;" style="verticalAlign=top;align=left;overflow=fill;fontSize=12;fontFamily=Helvetica;html=1;whiteSpace=wrap;fillColor=#dae8fc;strokeColor=#6c8ebf;labelBackgroundColor=none;labelBorderColor=none;rounded=0;sketch=1;curveFitting=1;jiggle=2;" parent="1" vertex="1">
          <mxGeometry x="25" y="40" width="170" height="125" as="geometry" />
        </mxCell>
        <mxCell id="fSairsaPHRafN0FBANSZ-3" value="&lt;p style=&quot;margin:0px;margin-top:4px;text-align:center;&quot;&gt;&lt;b&gt;SituacionRevista: ValueObject&lt;/b&gt;&lt;/p&gt;&lt;hr size=&quot;1&quot;&gt;&lt;p style=&quot;margin:0px;margin-left:4px;&quot;&gt;+ Profesor: Guid&lt;/p&gt;&lt;p style=&quot;margin:0px;margin-left:4px;&quot;&gt;+ Cargo: Enum&lt;/p&gt;&lt;p style=&quot;margin:0px;margin-left:4px;&quot;&gt;+ EnFunciones: bool&lt;/p&gt;&lt;hr size=&quot;1&quot;&gt;&lt;p style=&quot;margin:0px;margin-left:4px;&quot;&gt;+ Crear(): SituacionRevista&lt;/p&gt;" style="verticalAlign=top;align=left;overflow=fill;fontSize=12;fontFamily=Helvetica;html=1;whiteSpace=wrap;fillColor=#fff2cc;strokeColor=#d6b656;labelBackgroundColor=none;labelBorderColor=none;sketch=1;curveFitting=1;jiggle=2;rounded=0;" parent="1" vertex="1">
          <mxGeometry x="930" y="260" width="160" height="120" as="geometry" />
        </mxCell>
        <mxCell id="fSairsaPHRafN0FBANSZ-9" value="&lt;p style=&quot;margin:0px;margin-top:4px;text-align:center;&quot;&gt;&lt;b&gt;Cursante: ValueObject&lt;/b&gt;&lt;/p&gt;&lt;hr size=&quot;1&quot;&gt;&lt;p style=&quot;margin:0px;margin-left:4px;&quot;&gt;&lt;span style=&quot;&quot;&gt;+ Alumno: Guid&lt;/span&gt;&lt;/p&gt;&lt;p style=&quot;margin:0px;margin-left:4px;&quot;&gt;&lt;span style=&quot;&quot;&gt;+ CicloLectivo: Enum&lt;/span&gt;&lt;/p&gt;&lt;hr&gt;" style="verticalAlign=top;align=left;overflow=fill;fontSize=12;fontFamily=Helvetica;html=1;whiteSpace=wrap;fillColor=#fff2cc;strokeColor=#d6b656;labelBackgroundColor=none;labelBorderColor=none;rounded=0;sketch=1;curveFitting=1;jiggle=2;" parent="1" vertex="1">
          <mxGeometry x="32.5" y="709.9999999999999" width="155" height="90" as="geometry" />
        </mxCell>
        <mxCell id="fSairsaPHRafN0FBANSZ-12" value="&lt;p style=&quot;margin:0px;margin-top:4px;text-align:center;&quot;&gt;&lt;b&gt;Boletin: AggregateRoot&lt;/b&gt;&lt;/p&gt;&lt;hr size=&quot;1&quot;&gt;&lt;p style=&quot;margin:0px;margin-left:4px;&quot;&gt;+ Id: Guid&lt;/p&gt;&lt;p style=&quot;margin:0px;margin-left:4px;&quot;&gt;+ Alumno: Guid&lt;/p&gt;&lt;p style=&quot;margin:0px;margin-left:4px;&quot;&gt;+ Curso: Guid&lt;/p&gt;&lt;p style=&quot;margin:0px;margin-left:4px;&quot;&gt;+ Calificaciones: List&amp;lt;Calificacion&amp;gt;&lt;/p&gt;&lt;hr size=&quot;1&quot;&gt;&lt;p style=&quot;margin:0px;margin-left:4px;&quot;&gt;&lt;br&gt;&lt;/p&gt;" style="verticalAlign=top;align=left;overflow=fill;fontSize=12;fontFamily=Helvetica;html=1;whiteSpace=wrap;fillColor=#dae8fc;strokeColor=#6c8ebf;sketch=1;curveFitting=1;jiggle=2;rounded=0;" parent="1" vertex="1">
          <mxGeometry x="560" y="460" width="210" height="118.98" as="geometry" />
        </mxCell>
        <mxCell id="EG9hLnG0glLrsyxEOugy-1" value="&lt;p style=&quot;margin:0px;margin-top:4px;text-align:center;&quot;&gt;&lt;b&gt;Materia: Entity&lt;/b&gt;&lt;/p&gt;&lt;hr size=&quot;1&quot;&gt;&lt;p style=&quot;margin:0px;margin-left:4px;&quot;&gt;+ Id: Guid&lt;/p&gt;&lt;p style=&quot;margin:0px;margin-left:4px;&quot;&gt;+ Curso: Guid&lt;/p&gt;&lt;p style=&quot;margin:0px;margin-left:4px;&quot;&gt;+ Nombre: string&lt;/p&gt;&lt;p style=&quot;margin:0px;margin-left:4px;&quot;&gt;+ CantidadHoras: int&lt;/p&gt;&lt;p style=&quot;margin:0px;margin-left:4px;&quot;&gt;&lt;span style=&quot;background-color: initial;&quot;&gt;+ Docentes: List&amp;lt;SituacionRevista&amp;gt;&lt;/span&gt;&lt;br&gt;&lt;/p&gt;&lt;p style=&quot;margin:0px;margin-left:4px;&quot;&gt;&lt;span style=&quot;background-color: initial;&quot;&gt;+ Horarios: List&amp;lt;Horario&amp;gt;&lt;/span&gt;&lt;/p&gt;&lt;hr&gt;" style="verticalAlign=top;align=left;overflow=fill;fontSize=12;fontFamily=Helvetica;html=1;whiteSpace=wrap;fillColor=#dae8fc;strokeColor=#6c8ebf;labelBackgroundColor=none;labelBorderColor=none;rounded=0;sketch=1;curveFitting=1;jiggle=2;" parent="1" vertex="1">
          <mxGeometry x="560" y="45" width="210" height="160" as="geometry" />
        </mxCell>
        <mxCell id="twf0PPjM9mNhaG3VMw-u-1" value="&lt;p style=&quot;margin:0px;margin-top:4px;text-align:center;&quot;&gt;&lt;b&gt;Calificaci칩n: ValueObject&lt;/b&gt;&lt;/p&gt;&lt;hr size=&quot;1&quot;&gt;&lt;p style=&quot;margin:0px;margin-left:4px;&quot;&gt;+ Materia: Guid&lt;/p&gt;&lt;p style=&quot;margin:0px;margin-left:4px;&quot;&gt;+ DateTime: Fecha&lt;/p&gt;&lt;p style=&quot;margin:0px;margin-left:4px;&quot;&gt;+ Instancia: Enum&lt;/p&gt;&lt;p style=&quot;margin:0px;margin-left:4px;&quot;&gt;+ Nota: Double&lt;/p&gt;&lt;hr size=&quot;1&quot;&gt;&lt;p style=&quot;margin:0px;margin-left:4px;&quot;&gt;&lt;br&gt;&lt;/p&gt;" style="verticalAlign=top;align=left;overflow=fill;fontSize=12;fontFamily=Helvetica;html=1;whiteSpace=wrap;fillColor=#fff2cc;strokeColor=#d6b656;sketch=1;curveFitting=1;jiggle=2;rounded=0;" vertex="1" parent="1">
          <mxGeometry x="920" y="463.4699999999999" width="170" height="112.04" as="geometry" />
        </mxCell>
        <mxCell id="twf0PPjM9mNhaG3VMw-u-3" value="&lt;p style=&quot;margin:0px;margin-top:4px;text-align:center;&quot;&gt;&lt;b&gt;Horario: ValueObject&lt;/b&gt;&lt;/p&gt;&lt;hr size=&quot;1&quot;&gt;&lt;p style=&quot;margin:0px;margin-left:4px;&quot;&gt;&lt;span style=&quot;background-color: initial;&quot;&gt;+ HoraInicio: Time&lt;/span&gt;&lt;br&gt;&lt;/p&gt;&lt;p style=&quot;margin:0px;margin-left:4px;&quot;&gt;+ HoraFin: Time&lt;/p&gt;&lt;p style=&quot;margin:0px;margin-left:4px;&quot;&gt;+ Turno: Enunm&lt;/p&gt;&lt;p style=&quot;margin:0px;margin-left:4px;&quot;&gt;&lt;span style=&quot;background-color: initial;&quot;&gt;+ Dia: Enum&lt;/span&gt;&lt;/p&gt;&lt;hr&gt;&lt;p style=&quot;margin:0px;margin-left:4px;&quot;&gt;&lt;span style=&quot;background-color: initial;&quot;&gt;+ Crear(): Horario&lt;/span&gt;&lt;/p&gt;" style="verticalAlign=top;align=left;overflow=fill;fontSize=12;fontFamily=Helvetica;html=1;whiteSpace=wrap;fillColor=#fff2cc;strokeColor=#d6b656;labelBackgroundColor=none;labelBorderColor=none;rounded=0;sketch=1;curveFitting=1;jiggle=2;" vertex="1" parent="1">
          <mxGeometry x="940" y="60" width="140" height="130" as="geometry" />
        </mxCell>
        <mxCell id="twf0PPjM9mNhaG3VMw-u-12" value="&lt;p style=&quot;margin:0px;margin-top:4px;text-align:center;&quot;&gt;&lt;b&gt;Curso: Entity&lt;/b&gt;&lt;/p&gt;&lt;hr size=&quot;1&quot;&gt;&lt;p style=&quot;margin: 0px 0px 0px 4px;&quot;&gt;+ Id: Guid&lt;/p&gt;&lt;p style=&quot;margin: 0px 0px 0px 4px;&quot;&gt;+ Descripcion: string&lt;/p&gt;&lt;p style=&quot;margin: 0px 0px 0px 4px;&quot;&gt;&lt;span style=&quot;background-color: initial;&quot;&gt;+ Formacion: string&lt;/span&gt;&lt;/p&gt;&lt;p style=&quot;margin: 0px 0px 0px 4px;&quot;&gt;+ Cronograma: Guid&lt;br&gt;&lt;/p&gt;&lt;p style=&quot;margin: 0px 0px 0px 4px;&quot;&gt;+ Divisiones: List&amp;lt;Division&amp;gt;&lt;/p&gt;&lt;hr size=&quot;1&quot;&gt;&lt;p style=&quot;margin:0px;margin-left:4px;&quot;&gt;&lt;br&gt;&lt;/p&gt;" style="verticalAlign=top;align=left;overflow=fill;fontSize=12;fontFamily=Helvetica;html=1;whiteSpace=wrap;fillColor=#dae8fc;strokeColor=#6c8ebf;labelBackgroundColor=none;labelBorderColor=none;rounded=0;sketch=1;curveFitting=1;jiggle=2;" vertex="1" parent="1">
          <mxGeometry x="250" y="240" width="200" height="150" as="geometry" />
        </mxCell>
        <mxCell id="twf0PPjM9mNhaG3VMw-u-14" value="1" style="endArrow=open;html=1;endSize=12;startArrow=diamondThin;startSize=14;startFill=1;edgeStyle=orthogonalEdgeStyle;align=left;verticalAlign=bottom;rounded=0;entryX=0;entryY=0.5;entryDx=0;entryDy=0;exitX=1;exitY=0.5;exitDx=0;exitDy=0;" edge="1" parent="1" source="EG9hLnG0glLrsyxEOugy-1" target="twf0PPjM9mNhaG3VMw-u-3">
          <mxGeometry x="-1" y="3" relative="1" as="geometry">
            <mxPoint x="930" y="510" as="sourcePoint" />
            <mxPoint x="1090" y="510" as="targetPoint" />
          </mxGeometry>
        </mxCell>
        <mxCell id="twf0PPjM9mNhaG3VMw-u-18" value="1" style="endArrow=open;html=1;endSize=12;startArrow=diamondThin;startSize=14;startFill=1;edgeStyle=orthogonalEdgeStyle;align=left;verticalAlign=bottom;rounded=0;exitX=0;exitY=0.5;exitDx=0;exitDy=0;entryX=0.5;entryY=0;entryDx=0;entryDy=0;" edge="1" parent="1" source="twf0PPjM9mNhaG3VMw-u-12" target="slrVzPa48H6eJzgvsd5o-6">
          <mxGeometry x="-1" y="3" relative="1" as="geometry">
            <mxPoint x="520" y="840" as="sourcePoint" />
            <mxPoint x="680" y="840" as="targetPoint" />
          </mxGeometry>
        </mxCell>
        <mxCell id="twf0PPjM9mNhaG3VMw-u-22" value="1" style="endArrow=open;html=1;endSize=12;startArrow=diamondThin;startSize=14;startFill=1;edgeStyle=orthogonalEdgeStyle;align=left;verticalAlign=bottom;rounded=0;exitX=1;exitY=0.5;exitDx=0;exitDy=0;" edge="1" parent="1" source="EG9hLnG0glLrsyxEOugy-1" target="fSairsaPHRafN0FBANSZ-3">
          <mxGeometry x="-1" y="3" relative="1" as="geometry">
            <mxPoint x="520" y="310" as="sourcePoint" />
            <mxPoint x="680" y="310" as="targetPoint" />
            <Array as="points">
              <mxPoint x="860" y="125" />
              <mxPoint x="860" y="320" />
            </Array>
          </mxGeometry>
        </mxCell>
        <mxCell id="twf0PPjM9mNhaG3VMw-u-27" value="1" style="endArrow=open;html=1;endSize=12;startArrow=diamondThin;startSize=14;startFill=0;edgeStyle=orthogonalEdgeStyle;align=left;verticalAlign=bottom;rounded=0;exitX=1;exitY=0.5;exitDx=0;exitDy=0;entryX=0;entryY=0.5;entryDx=0;entryDy=0;" edge="1" parent="1" source="twf0PPjM9mNhaG3VMw-u-12" target="EG9hLnG0glLrsyxEOugy-1">
          <mxGeometry x="-1" y="3" relative="1" as="geometry">
            <mxPoint x="520" y="310" as="sourcePoint" />
            <mxPoint x="680" y="310" as="targetPoint" />
          </mxGeometry>
        </mxCell>
        <mxCell id="twf0PPjM9mNhaG3VMw-u-34" value="1" style="endArrow=open;html=1;endSize=12;startArrow=diamondThin;startSize=14;startFill=0;edgeStyle=orthogonalEdgeStyle;align=left;verticalAlign=bottom;rounded=0;exitX=0.5;exitY=1;exitDx=0;exitDy=0;entryX=0.5;entryY=0;entryDx=0;entryDy=0;" edge="1" parent="1" source="fSairsaPHRafN0FBANSZ-2" target="twf0PPjM9mNhaG3VMw-u-12">
          <mxGeometry x="-1" y="3" relative="1" as="geometry">
            <mxPoint x="520" y="310" as="sourcePoint" />
            <mxPoint x="680" y="310" as="targetPoint" />
          </mxGeometry>
        </mxCell>
        <mxCell id="twf0PPjM9mNhaG3VMw-u-37" value="1" style="endArrow=open;html=1;endSize=12;startArrow=diamondThin;startSize=14;startFill=1;edgeStyle=orthogonalEdgeStyle;align=left;verticalAlign=bottom;rounded=0;exitX=0.5;exitY=1;exitDx=0;exitDy=0;entryX=0.5;entryY=0;entryDx=0;entryDy=0;" edge="1" parent="1" source="slrVzPa48H6eJzgvsd5o-6" target="fSairsaPHRafN0FBANSZ-9">
          <mxGeometry x="-1" y="3" relative="1" as="geometry">
            <mxPoint x="520" y="570" as="sourcePoint" />
            <mxPoint x="680" y="570" as="targetPoint" />
          </mxGeometry>
        </mxCell>
        <mxCell id="twf0PPjM9mNhaG3VMw-u-42" value="1" style="endArrow=open;html=1;endSize=12;startArrow=diamondThin;startSize=14;startFill=1;edgeStyle=orthogonalEdgeStyle;align=left;verticalAlign=bottom;rounded=0;entryX=0;entryY=0.5;entryDx=0;entryDy=0;exitX=1;exitY=0.5;exitDx=0;exitDy=0;" edge="1" parent="1" source="fSairsaPHRafN0FBANSZ-12" target="twf0PPjM9mNhaG3VMw-u-1">
          <mxGeometry x="-1" y="3" relative="1" as="geometry">
            <mxPoint x="890" y="700" as="sourcePoint" />
            <mxPoint x="680" y="570" as="targetPoint" />
          </mxGeometry>
        </mxCell>
        <mxCell id="twf0PPjM9mNhaG3VMw-u-46" value="&lt;p style=&quot;margin:0px;margin-top:4px;text-align:center;&quot;&gt;&lt;b&gt;Alumno: AggregateRoot&lt;/b&gt;&lt;/p&gt;&lt;hr size=&quot;1&quot;&gt;&lt;p style=&quot;margin:0px;margin-left:4px;&quot;&gt;+ Id: Guid&lt;/p&gt;&lt;hr size=&quot;1&quot;&gt;&lt;p style=&quot;margin:0px;margin-left:4px;&quot;&gt;&lt;br&gt;&lt;/p&gt;" style="verticalAlign=top;align=left;overflow=fill;fontSize=12;fontFamily=Helvetica;html=1;whiteSpace=wrap;fillColor=#dae8fc;strokeColor=#6c8ebf;sketch=1;curveFitting=1;jiggle=2;rounded=0;" vertex="1" parent="1">
          <mxGeometry x="560" y="719.49" width="210" height="71.02" as="geometry" />
        </mxCell>
        <mxCell id="twf0PPjM9mNhaG3VMw-u-48" value="" style="endArrow=open;endFill=1;endSize=12;html=1;rounded=0;exitX=1;exitY=0.5;exitDx=0;exitDy=0;entryX=0;entryY=0.5;entryDx=0;entryDy=0;edgeStyle=orthogonalEdgeStyle;" edge="1" parent="1" source="fSairsaPHRafN0FBANSZ-9" target="twf0PPjM9mNhaG3VMw-u-46">
          <mxGeometry width="160" relative="1" as="geometry">
            <mxPoint x="500" y="540" as="sourcePoint" />
            <mxPoint x="660" y="540" as="targetPoint" />
          </mxGeometry>
        </mxCell>
        <mxCell id="twf0PPjM9mNhaG3VMw-u-49" value="&lt;p style=&quot;margin:0px;margin-top:4px;text-align:center;&quot;&gt;&lt;b&gt;Asistencia: AggregateRoot&lt;/b&gt;&lt;/p&gt;&lt;hr size=&quot;1&quot;&gt;&lt;p style=&quot;margin:0px;margin-left:4px;&quot;&gt;+ Id: Guid&lt;/p&gt;&lt;p style=&quot;margin:0px;margin-left:4px;&quot;&gt;+ Curso: Guid&lt;/p&gt;&lt;p style=&quot;margin:0px;margin-left:4px;&quot;&gt;+ Descripcion: string&lt;/p&gt;&lt;p style=&quot;margin:0px;margin-left:4px;&quot;&gt;+ Preceptor: Guid&lt;/p&gt;&lt;p style=&quot;margin:0px;margin-left:4px;&quot;&gt;+ Cursantes: List&amp;lt;Cursantes&amp;gt;&lt;/p&gt;&lt;hr&gt;" style="verticalAlign=top;align=left;overflow=fill;fontSize=12;fontFamily=Helvetica;html=1;whiteSpace=wrap;fillColor=#fff2cc;strokeColor=#d6b656;labelBackgroundColor=none;labelBorderColor=none;sketch=1;curveFitting=1;jiggle=2;" vertex="1" parent="1">
          <mxGeometry x="265" y="580" width="180" height="145.93" as="geometry" />
        </mxCell>
      </root>
    </mxGraphModel>
  </diagram>
</mxfile>
